<svg width="32" height="32" viewBox="0 0 32 32" fill="none" xmlns="http://www.w3.org/2000/svg">
<path d="M29.4729 14.756C29.3872 14.7291 29.3045 14.7223 29.2246 14.7355C29.0525 14.764 28.9119 14.8551 28.8017 15.0093L27.7425 16.488C27.6435 16.6268 27.608 16.7818 27.6364 16.9538L28.4693 21.9895C28.6136 22.8621 28.4271 23.6598 27.9082 24.3842C27.3898 25.1081 26.6942 25.5423 25.8217 25.6866L9.32553 28.4148C8.45302 28.5591 7.65476 28.372 6.93084 27.8536C6.20672 27.3349 5.77278 26.6398 5.62845 25.7671L2.90025 9.27128C2.75597 8.39891 2.94294 7.60074 3.4615 6.87658C3.97994 6.15259 4.67546 5.71851 5.54798 5.5742L22.0443 2.84591C22.3352 2.79781 22.6391 2.78828 22.9562 2.81739C23.0399 2.83051 23.1016 2.83408 23.1407 2.8276C23.3128 2.79914 23.454 2.70808 23.5642 2.55409L24.3751 1.42186C24.5074 1.23725 24.5354 1.03556 24.4582 0.817663C24.3836 0.612691 24.2393 0.480303 24.0258 0.420663C23.2579 0.208637 22.4568 0.170819 21.6241 0.30854L5.12831 3.03674C3.55537 3.29688 2.30272 4.07781 1.37049 5.3795C0.438422 6.68131 0.102356 8.11848 0.362512 9.69149L3.09079 26.1877C3.3509 27.7605 4.13181 29.013 5.43344 29.9453C6.73517 30.8778 8.17256 31.2138 9.7455 30.9537L26.2416 28.2254C27.8144 27.9653 29.0672 27.1844 29.9993 25.8824C30.9316 24.5807 31.2682 23.1434 31.0081 21.5706L29.9652 15.2651C29.9192 14.9878 29.7547 14.8182 29.4729 14.756Z" fill="#333333"/>
</svg>
