<svg width="28" height="25" viewBox="0 0 28 25" fill="none" xmlns="http://www.w3.org/2000/svg">
<path d="M26.5676 2.55205L24.0257 0.731586C23.656 0.466894 23.2528 0.370624 22.8165 0.442787C22.3807 0.514858 22.0297 0.73586 21.7652 1.10544L11.0585 16.0554L4.98181 11.7032C4.61202 11.4383 4.20901 11.3422 3.77297 11.4143C3.33685 11.4864 2.98638 11.7071 2.7215 12.077L0.901262 14.6186C0.6365 14.9883 0.540068 15.3914 0.612231 15.8277C0.684359 16.2638 0.905408 16.6142 1.27512 16.8791L11.2108 23.9947C11.5806 24.2597 11.9836 24.3557 12.4196 24.2836C12.8557 24.2114 13.2062 23.9909 13.4711 23.6209L26.9412 4.81232C27.2058 4.44273 27.3024 4.03956 27.2303 3.60345C27.1582 3.16733 26.9373 2.81674 26.5676 2.55205Z" fill="#333333"/>
</svg>
